<svg aria-hidden="true" style="position: absolute; width: 0; height: 0; overflow: hidden;" version="1.1" xmlns="http://www.w3.org/2000/svg" xmlns:xlink="http://www.w3.org/1999/xlink">
<defs>
<symbol id="icon-announcements" viewBox="0 0 32 32">
<path fill="none" stroke="#46b843" style="stroke: var(--color5, #46b843)" stroke-linejoin="miter" stroke-linecap="butt" stroke-miterlimit="4" stroke-width="1.0667" d="M23.5 17.663v0.123l0.054 0.111 2.095 4.29c0.070 0.143 0.061 0.311-0.023 0.446s-0.232 0.217-0.391 0.217h-6.671v0.63c0 1.465-1.188 2.652-2.652 2.652s-2.653-1.188-2.653-2.652v-0.63h-6.666c-0.159-0-0.307-0.082-0.391-0.217s-0.093-0.304-0.023-0.446l0-0.001 2.149-4.4v-4.216l-0-0.006c-0.034-3.095 1.857-5.886 4.743-7.002l0.004-0.002 0.004-0.002 0-0 0.002-0.001 0.010-0.004c0.009-0.004 0.024-0.010 0.044-0.017 0.040-0.015 0.1-0.037 0.177-0.064 0.154-0.054 0.376-0.126 0.641-0.199 0.536-0.146 1.226-0.286 1.89-0.286 0.666 0 1.393 0.14 1.968 0.288 0.284 0.073 0.525 0.146 0.693 0.2 0.084 0.027 0.15 0.050 0.194 0.065 0.022 0.008 0.039 0.014 0.049 0.018l0.009 0.003c2.863 1.145 4.741 3.918 4.742 7.002 0 0 0 0 0 0v4.098z"></path>
<path fill="none" stroke="#46b843" style="stroke: var(--color5, #46b843)" stroke-linejoin="miter" stroke-linecap="square" stroke-miterlimit="4" stroke-width="1.0667" d="M8.19 23.076h15.238"></path>
</symbol>
<symbol id="icon-arcticons_rss" viewBox="0 0 31 32">
<path fill="none" stroke="#46b843" style="stroke: var(--color5, #46b843)" stroke-linejoin="round" stroke-linecap="round" stroke-miterlimit="4" stroke-width="1.0667" d="M3 9.049c5.115 0 10.020 2.032 13.636 5.648s5.648 8.522 5.648 13.636v0h5.382c0-3.239-0.638-6.447-1.878-9.44s-3.057-5.712-5.347-8.002c-2.291-2.29-5.010-4.107-8.002-5.347s-6.2-1.878-9.44-1.878v5.382z"></path>
<path fill="none" stroke="#46b843" style="stroke: var(--color5, #46b843)" stroke-linejoin="round" stroke-linecap="round" stroke-miterlimit="4" stroke-width="1.0667" d="M19.145 28.333h-4.933c0-2.974-1.181-5.825-3.284-7.928s-4.954-3.284-7.928-3.284v-4.933c2.12 0 4.22 0.418 6.179 1.229s3.739 2.001 5.238 3.5c1.499 1.499 2.688 3.279 3.5 5.238s1.229 4.058 1.229 6.179v0z"></path>
<path fill="none" stroke="#46b843" style="stroke: var(--color5, #46b843)" stroke-linejoin="round" stroke-linecap="round" stroke-miterlimit="4" stroke-width="1.0667" d="M6.164 28.333c1.747 0 3.163-1.416 3.163-3.163s-1.416-3.163-3.163-3.163c-1.747 0-3.163 1.416-3.163 3.163s1.416 3.163 3.163 3.163z"></path>
</symbol>
<symbol id="icon-dollar" viewBox="0 0 15 32">
<path d="M9.060 0.484v4.321h-1.663v-4.321h1.663zM9.011 27.19v4.027h-1.663v-4.027h1.663zM13.315 21.973c0-0.804-0.168-1.5-0.505-2.087-0.326-0.598-0.88-1.136-1.663-1.614-0.772-0.489-1.826-0.967-3.163-1.435-1.37-0.446-2.554-0.951-3.554-1.516-0.989-0.565-1.755-1.272-2.299-2.12-0.533-0.859-0.799-1.935-0.799-3.228 0-1.272 0.277-2.375 0.832-3.31 0.565-0.935 1.364-1.652 2.397-2.152 1.033-0.511 2.245-0.766 3.636-0.766 1.076 0 2.038 0.158 2.886 0.473 0.859 0.315 1.582 0.788 2.168 1.418 0.598 0.62 1.054 1.386 1.37 2.299 0.315 0.902 0.473 1.946 0.473 3.13h-1.94c0-0.804-0.109-1.543-0.326-2.217-0.207-0.674-0.522-1.261-0.946-1.761-0.424-0.511-0.946-0.902-1.565-1.174-0.609-0.283-1.315-0.424-2.12-0.424-1.12 0-2.043 0.201-2.772 0.603s-1.266 0.94-1.614 1.614c-0.348 0.674-0.522 1.413-0.522 2.217 0 0.793 0.147 1.489 0.44 2.087s0.826 1.141 1.598 1.63c0.772 0.478 1.88 0.962 3.326 1.451 1.37 0.446 2.543 0.951 3.522 1.516 0.989 0.565 1.75 1.272 2.283 2.119 0.533 0.837 0.799 1.908 0.799 3.212 0 1.315-0.299 2.44-0.897 3.375-0.598 0.924-1.435 1.63-2.511 2.12s-2.332 0.734-3.766 0.734c-0.924 0-1.837-0.119-2.739-0.359-0.902-0.25-1.717-0.652-2.446-1.207s-1.31-1.288-1.745-2.201c-0.435-0.924-0.652-2.060-0.652-3.408h1.94c0 1.054 0.168 1.929 0.505 2.625s0.777 1.25 1.321 1.663c0.554 0.413 1.163 0.706 1.826 0.88s1.326 0.261 1.989 0.261c1.109 0 2.049-0.196 2.821-0.587 0.783-0.402 1.38-0.94 1.793-1.614 0.413-0.685 0.62-1.435 0.62-2.25z"></path>
</symbol>
<symbol id="icon-comment" viewBox="0 0 32 32">
<path fill="none" stroke="#889099" style="stroke: var(--color4, #889099)" stroke-linejoin="miter" stroke-linecap="butt" stroke-miterlimit="4" stroke-width="2" d="M5 26v-1h-3c-0.622 0-1-0.404-1-0.904v-21.956c0-0.653 0.53-1.14 1-1.14h28c0.47 0 1 0.487 1 1.14v21.956c0 0.5-0.378 0.904-1 0.904h-13.684l-10.961 5.689c-0.147 0.071-0.265 0.111-0.353 0.13-0.001-0.020-0.002-0.042-0.002-0.067v-4.752z"></path>
</symbol>
<symbol id="icon-facebook" viewBox="0 0 16 32">
<path d="M10.38 32v-14.596h4.718l0.704-5.689h-5.423v-3.627c0-1.653 0.437-2.764 2.718-2.764h2.901v-5.104c-0.507-0.073-2.225-0.219-4.225-0.219-4.183 0-7.042 2.647-7.042 7.517v4.197h-4.732v5.689h4.732v14.596h5.648z"></path>
</symbol>
<symbol id="icon-google" viewBox="0 0 49 32">
<path d="M30.615 13.907c0.147 0.897 0.294 1.794 0.294 2.692 0 4.636-1.325 8.374-4.268 11.065-2.796 2.841-6.329 4.336-10.892 4.336-4.416 0-8.095-1.495-11.186-4.636s-4.563-6.879-4.563-11.364c0-4.486 1.472-8.224 4.563-11.364s6.771-4.636 11.186-4.636c4.121 0 7.654 1.346 10.597 4.187l-4.268 4.187c-1.619-1.645-3.827-2.393-6.329-2.393-2.649 0-5.004 1.047-6.918 2.991-1.913 2.093-2.944 4.486-2.944 7.178 0 2.841 1.030 5.234 2.944 7.178s4.268 2.991 6.918 2.991c2.208 0 4.121-0.598 5.887-1.794 1.766-1.346 2.797-2.991 3.091-5.084h-8.978v-5.533h14.866zM49.455 18.542h-4.416v4.636h-4.563v-4.636h-4.563v-4.636h4.563v-4.636h4.563v4.636h4.416v4.636z"></path>
</symbol>
<symbol id="icon-linkedin" viewBox="0 0 32 32">
<path d="M30.024 0h-27.456c-1.315 0-2.568 0.893-2.568 2.168v27.599c0 1.275 1.254 2.233 2.568 2.233h27.456c1.315 0 1.976-0.959 1.976-2.233v-27.599c0-1.275-0.661-2.168-1.976-2.168z"></path>
<path fill="#fff" style="fill: var(--color2, #fff)" d="M9.454 26.909h-4.364v-14.546h4.364v14.546zM7.521 10.182h-0.033c-1.632 0-2.69-1.060-2.69-2.458 0-1.426 1.089-2.484 2.754-2.484s2.689 1.043 2.721 2.47c0 1.398-1.056 2.472-2.752 2.472zM27.636 26.909h-5.091v-7.864c0-1.956-0.661-3.29-2.42-3.29-1.346 0-2.151 0.9-2.502 1.769-0.13 0.311-0.168 0.745-0.168 1.178v8.207h-4.808c0 0 0.064-13.091 0-14.546h4.808v1.98c0.727-0.991 1.897-2.404 4.481-2.404 3.203 0 5.701 2.078 5.701 6.547v8.423zM17.48 14.389c0.009-0.014 0.020-0.030 0.031-0.046v0.046h-0.031z"></path>
</symbol>
<symbol id="icon-search" viewBox="0 0 32 32">
<path stroke-linejoin="round" stroke-linecap="round" stroke-miterlimit="4" stroke-width="3" d="M22.5 22.5l6 6"></path>
<path stroke-linejoin="round" stroke-linecap="round" stroke-miterlimit="4" stroke-width="3" d="M15 24.5c5.247 0 9.5-4.253 9.5-9.5s-4.253-9.5-9.5-9.5c-5.247 0-9.5 4.253-9.5 9.5s4.253 9.5 9.5 9.5z"></path>
</symbol>
<symbol id="icon-shape" viewBox="0 0 48 32">
<path fill="#4cb649" style="fill: var(--color6, #4cb649)" d="M47.472 14.744c0.704 0.693 0.704 1.82 0 2.514l-14.441 14.222c-0.704 0.693-1.848 0.693-2.552 0s-0.704-1.82 0-2.514l11.358-11.189h-40.031c-0.996 0-1.805-0.793-1.805-1.778 0-0.981 0.809-1.778 1.805-1.778h40.031l-11.358-11.185c-0.704-0.693-0.704-1.82 0-2.514 0.354-0.348 0.816-0.523 1.274-0.523 0.462 0 0.924 0.174 1.278 0.523l14.441 14.222z"></path>
</symbol>
<symbol id="icon-twitter" viewBox="0 0 39 32">
<path d="M38.957 3.786c-1.434 0.643-2.972 1.078-4.589 1.273 1.65-1 2.914-2.585 3.513-4.468-1.548 0.926-3.257 1.598-5.078 1.962-1.458-1.573-3.532-2.553-5.833-2.553-4.413 0-7.992 3.619-7.992 8.079 0 0.633 0.071 1.251 0.207 1.841-6.641-0.337-12.529-3.555-16.471-8.444-0.689 1.192-1.081 2.58-1.081 4.062 0 2.804 1.412 5.278 3.554 6.725-1.31-0.044-2.541-0.409-3.62-1.014v0.101c0 3.914 2.756 7.181 6.41 7.924-0.669 0.182-1.375 0.283-2.106 0.283-0.516 0-1.015-0.052-1.504-0.15 1.018 3.213 3.968 5.549 7.464 5.613-2.734 2.166-6.181 3.454-9.925 3.454-0.645 0-1.28-0.040-1.906-0.111 3.537 2.297 7.736 3.636 12.25 3.636 14.701 0 22.737-12.314 22.737-22.992l-0.027-1.046c1.57-1.132 2.928-2.555 3.997-4.175z"></path>
</symbol>
<symbol id="icon-youtube" viewBox="0 0 46 32">
<path d="M45.714 6.836c0-3.776-3.058-6.836-6.832-6.836h-32.051c-3.773 0-6.832 3.060-6.832 6.836v18.328c0 3.776 3.058 6.836 6.832 6.836h32.051c3.773 0 6.832-3.060 6.832-6.836v-18.328z"></path>
<path fill="#fff" style="fill: var(--color2, #fff)" d="M18.286 24.94v-17.216l13.055 8.608-13.055 8.608z"></path>
</symbol>
<symbol id="icon-SL" viewBox="0 0 32 32">
<path d="M15.634 0.011c9.123-0.205 16.6 7.246 16.358 16.452-0.22 8.392-7.106 15.628-16.183 15.536-8.649-0.087-15.762-7.095-15.806-16 0.053-8.892 7.125-15.795 15.631-15.988z"></path>
<path fill="#fff" style="fill: var(--color2, #fff)" d="M27.275 17.957c0.848-0.628 1.362-1.443 1.26-2.541-0.101-1.077-0.645-1.877-1.631-2.315-1.067-0.47-2.088-0.338-3.003 0.41-0.105 0.085-0.168 0.089-0.276 0.019-1.697-1.119-3.567-1.746-5.584-1.95-0.127-0.013-0.255-0.026-0.388-0.040l-0-0-0.322-0.034c0.268-0.834 0.532-1.656 0.795-2.475l0.501-1.561c0.035 0.006 0.068 0.010 0.099 0.015 0.061 0.009 0.115 0.017 0.169 0.028 0.289 0.062 0.577 0.125 0.866 0.187v0 0l0 0c0.74 0.161 1.481 0.322 2.224 0.473 0.212 0.043 0.317 0.118 0.378 0.342 0.283 1.059 1.337 1.734 2.401 1.563 1.463-0.236 2.257-1.812 1.548-3.075-0.567-1.009-2.329-1.612-3.465-0.292-0.111 0.13-0.205 0.16-0.371 0.124-0.974-0.214-1.95-0.421-2.925-0.629-0.363-0.077-0.727-0.155-1.090-0.232-0.556-0.119-0.816 0.033-0.987 0.578-0.161 0.511-0.322 1.021-0.483 1.531l-0 0c-0.323 1.022-0.645 2.044-0.966 3.067-0.042 0.133-0.077 0.23-0.255 0.229-0.903-0.007-1.793 0.121-2.676 0.308-1.583 0.335-3.056 0.933-4.395 1.847-0.122 0.083-0.197 0.050-0.309-0.002-0.124-0.057-0.248-0.119-0.371-0.18v0c-0.332-0.165-0.665-0.33-1.017-0.423-1.669-0.442-3.652 0.915-3.31 3.144 0.134 0.877 0.655 1.511 1.373 1.992 0.118 0.079 0.144 0.15 0.123 0.279-0.201 1.206-0.076 2.376 0.411 3.502 0.692 1.601 1.883 2.758 3.33 3.67 1.651 1.042 3.482 1.57 5.402 1.812 1.68 0.21 3.35 0.13 5-0.242 2.375-0.536 4.489-1.555 6.117-3.422 1.291-1.481 1.863-3.203 1.597-5.167-0.036-0.262 0.027-0.389 0.23-0.54zM21.627 18.038c0.004 0.887-0.792 1.68-1.687 1.681-0.931 0.001-1.692-0.782-1.693-1.743-0.001-0.878 0.784-1.649 1.684-1.651 0.927-0.003 1.693 0.769 1.696 1.713zM20.34 22.935c0.194-0.225 0.144-0.492-0.034-0.669-0.248-0.246-0.568-0.315-0.817-0.172-0.056 0.032-0.109 0.068-0.162 0.105v0 0c-0.042 0.029-0.084 0.058-0.128 0.084-1.715 1.042-3.506 1.204-5.363 0.432-0.285-0.119-0.553-0.28-0.82-0.442v0c-0.089-0.054-0.179-0.108-0.268-0.16-0.267-0.156-0.601-0.101-0.857 0.157-0.168 0.169-0.19 0.461-0.021 0.7 0.095 0.134 0.224 0.255 0.359 0.35 1.16 0.814 2.465 1.154 3.974 1.172 0.047-0.004 0.103-0.007 0.166-0.011 0.153-0.010 0.344-0.023 0.535-0.041 0.938-0.086 1.833-0.333 2.643-0.82 0.295-0.18 0.565-0.424 0.793-0.685zM13.965 18.034c0.004 0.857-0.802 1.683-1.643 1.685-0.954 0.002-1.747-0.766-1.75-1.693-0.002-0.917 0.774-1.7 1.686-1.7 0.924-0.001 1.704 0.779 1.707 1.709z"></path>
</symbol>
</defs>
</svg>
