<svg aria-hidden="true" style="position: absolute; width: 0; height: 0; overflow: hidden;" version="1.1" xmlns="http://www.w3.org/2000/svg" xmlns:xlink="http://www.w3.org/1999/xlink">
<defs>
<symbol id="icon-SL" viewBox="0 0 32 32">
<path fill="#323642" style="fill: var(--color1, #323642)" d="M15.634 0.011c9.123-0.205 16.6 7.246 16.358 16.452-0.22 8.392-7.106 15.628-16.183 15.536-8.649-0.087-15.762-7.095-15.806-16 0.053-8.892 7.125-15.795 15.631-15.988z"></path>
<path fill="#fff" style="fill: var(--color2, #fff)" d="M27.275 17.957c0.848-0.628 1.362-1.443 1.26-2.541-0.101-1.077-0.645-1.877-1.631-2.315-1.067-0.47-2.088-0.338-3.003 0.41-0.105 0.085-0.168 0.089-0.276 0.019-1.697-1.119-3.567-1.746-5.584-1.95-0.127-0.013-0.255-0.026-0.388-0.040l-0-0-0.322-0.034c0.268-0.834 0.532-1.656 0.795-2.475l0.501-1.561c0.035 0.006 0.068 0.010 0.099 0.015 0.061 0.009 0.115 0.017 0.169 0.028 0.289 0.062 0.577 0.125 0.866 0.187v0 0l0 0c0.74 0.161 1.481 0.322 2.224 0.473 0.212 0.043 0.317 0.118 0.378 0.342 0.283 1.059 1.337 1.734 2.401 1.563 1.463-0.236 2.257-1.812 1.548-3.075-0.567-1.009-2.329-1.612-3.465-0.292-0.111 0.13-0.205 0.16-0.371 0.124-0.974-0.214-1.95-0.421-2.925-0.629-0.363-0.077-0.727-0.155-1.090-0.232-0.556-0.119-0.816 0.033-0.987 0.578-0.161 0.511-0.322 1.021-0.483 1.531l-0 0c-0.323 1.022-0.645 2.044-0.966 3.067-0.042 0.133-0.077 0.23-0.255 0.229-0.903-0.007-1.793 0.121-2.676 0.308-1.583 0.335-3.056 0.933-4.395 1.847-0.122 0.083-0.197 0.050-0.309-0.002-0.124-0.057-0.248-0.119-0.371-0.18v0c-0.332-0.165-0.665-0.33-1.017-0.423-1.669-0.442-3.652 0.915-3.31 3.144 0.134 0.877 0.655 1.511 1.373 1.992 0.118 0.079 0.144 0.15 0.123 0.279-0.201 1.206-0.076 2.376 0.411 3.502 0.692 1.601 1.883 2.758 3.33 3.67 1.651 1.042 3.482 1.57 5.402 1.812 1.68 0.21 3.35 0.13 5-0.242 2.375-0.536 4.489-1.555 6.117-3.422 1.291-1.481 1.863-3.203 1.597-5.167-0.036-0.262 0.027-0.389 0.23-0.54zM21.627 18.038c0.004 0.887-0.792 1.68-1.687 1.681-0.931 0.001-1.692-0.782-1.693-1.743-0.001-0.878 0.784-1.649 1.684-1.651 0.927-0.003 1.693 0.769 1.696 1.713zM20.34 22.935c0.194-0.225 0.144-0.492-0.034-0.669-0.248-0.246-0.568-0.315-0.817-0.172-0.056 0.032-0.109 0.068-0.162 0.105v0 0c-0.042 0.029-0.084 0.058-0.128 0.084-1.715 1.042-3.506 1.204-5.363 0.432-0.285-0.119-0.553-0.28-0.82-0.442v0c-0.089-0.054-0.179-0.108-0.268-0.16-0.267-0.156-0.601-0.101-0.857 0.157-0.168 0.169-0.19 0.461-0.021 0.7 0.095 0.134 0.224 0.255 0.359 0.35 1.16 0.814 2.465 1.154 3.974 1.172 0.047-0.004 0.103-0.007 0.166-0.011 0.153-0.010 0.344-0.023 0.535-0.041 0.938-0.086 1.833-0.333 2.643-0.82 0.295-0.18 0.565-0.424 0.793-0.685zM13.965 18.034c0.004 0.857-0.802 1.683-1.643 1.685-0.954 0.002-1.747-0.766-1.75-1.693-0.002-0.917 0.774-1.7 1.686-1.7 0.924-0.001 1.704 0.779 1.707 1.709z"></path>
</symbol>
</defs>
</svg>
